# xmcd
# 
# Track frame offsets:
#     150
#     10615
#     24282
#     38247
#     68935
#     98650
#     118212
#     158640
#     186280
#     213017
#     238872
#     261315
#     276827
#     287782
#     300297
#     315147
#     331090
# 
# Disc length: 4679
# 
# Revision: 2
# Processed by: cddbd v1.5.2PL0 Copyright (c) Steve Scherf et al.
# Submitted via: fre:ac v1.0.17
# 
DISCID=dc124511
DTITLE=Louis Armstrong - Hello, Satchmo! Again
DYEAR=2002
DGENRE=Jazz
TTITLE0=What A Wonderful World by Louis Armstrong (1967)
TTITLE1=Do You Know What It Means To Miss New Orleans? by Louis Armstrong (1946)
TTITLE2=Our Monday Date by Louis Armstrong (1947)
TTITLE3=On The Sunny Side Of The Street by Louis Armstrong (1947)
TTITLE4=I Surrender Dear by Louis Armstrong (1950)
TTITLE5=Yellow Dog Blues by Louis Armstrong (1954)
TTITLE6=St. Louis Blues by Louis Armstrong (1954)
TTITLE7=Basin Street Blues by Louis Armstrong (1953)
TTITLE8=Cheek To Cheek by Louis Armstrong (1956)
TTITLE9=Nearness Of You by Louis Armstrong (1956)
TTITLE10=Summertime by Louis Armstrong (1957)
TTITLE11=When It's Sleepy Time Down South by Louis Armstrong (1955)
TTITLE12=Hello, Dolly! by Louis Armstrong (1963)
TTITLE13=Cabaret by Louis Armstrong (1967)
TTITLE14=Dream A Little Dream Of Me by Louis Armstrong (1968)
TTITLE15=Hello Brother by Louis Armstrong (1968)
TTITLE16=When You Wish Upon A Star by Louis Armstrong (1968)
EXTD=YEAR: 2002
EXTT0=
EXTT1=
EXTT2=
EXTT3=
EXTT4=
EXTT5=
EXTT6=
EXTT7=
EXTT8=
EXTT9=
EXTT10=
EXTT11=
EXTT12=
EXTT13=
EXTT14=
EXTT15=
EXTT16=
PLAYORDER=
